<?xml version="1.0" encoding="UTF-8"?>
<svg xmlns="http://www.w3.org/2000/svg" width="800" height="200" viewBox="0 0 800 200" role="img" aria-label="VisitIndia logo">
  <title>VisitIndia white logo</title>
  <!-- Background transparent -->
  <!-- Airplane icon (silhouette) -->
  <g transform="translate(40,30) scale(1.4)">
    <path d="M24.1 2.1c-1.2-0.6-2.6-0.6-3.9 0L3.0 9.2c-1.2 0.6-1.9 1.9-1.7 3.2 0.2 1.3 1.2 2.3 2.5 2.6l6.0 1.3 3.8 10.1c0.5 1.4 2 2.2 3.5 1.9 0.6-0.2 1.1-0.5 1.5-1.0L32.9 23c1.8-1.7 4.2-2.5 6.6-2.2 2.5 0.3 4.6 1.8 5.8 3.8l4.0 6.4c0.6 1.0 2.0 1.4 3.0 0.9 1.0-0.6 1.4-1.9 0.9-3.0L55.4 19c-1.9-3.7-6.0-6.0-10.4-5.3L36.9 15 28.3 5.9C27.1 4.0 25.3 2.8 24.1 2.1z" fill="#FFFFFF"/>
  </g>

  <!-- Text: VisitIndia in white -->
  <text x="200" y="135" font-family="Poppins, Arial, sans-serif" font-weight="700" font-size="96" fill="#FFFFFF">VisitIndia</text>
</svg>
