<?xml version="1.0" encoding="UTF-8"?>
<svg version="1.1" xmlns="http://www.w3.org/2000/svg" width="500" height="500">
<path d="M0 0 C3.5625 0.5625 3.5625 0.5625 6.5 2.625 C9.09577109 6.3220073 9.27503588 8.12894342 8.5625 12.5625 C5.32764912 17.95391813 -0.38326124 22.23457412 -5.359375 26.02734375 C-7.34339052 27.56129685 -7.34339052 27.56129685 -9.4375 30.5625 C-8.63696082 36.28063703 -6.8015495 41.59379927 -4.94921875 47.046875 C-4.72230347 47.71514313 -4.49538818 48.38341125 -4.26159668 49.07192993 C-3.31011886 51.86369639 -2.35785179 54.65458207 -1.3737793 57.43505859 C-0.65054081 59.48712598 0.04581306 61.54675472 0.73828125 63.609375 C1.16020752 64.82463867 1.58213379 66.03990234 2.0168457 67.29199219 C2.5625 70.5625 2.5625 70.5625 1.34448242 73.32128906 C-0.74022929 75.9432446 -3.00530525 78.26177523 -5.4375 80.5625 C-9.0108809 79.37137303 -9.27594319 78.63666183 -11.109375 75.4765625 C-11.60598633 74.63254883 -12.10259766 73.78853516 -12.61425781 72.91894531 C-13.13342773 72.01756836 -13.65259766 71.11619141 -14.1875 70.1875 C-15.25931171 68.3613302 -16.33222245 66.53580498 -17.40625 64.7109375 C-17.92445313 63.82631836 -18.44265625 62.94169922 -18.9765625 62.03027344 C-21.67889508 57.46557127 -24.54239845 53.00709253 -27.4375 48.5625 C-29.8069523 50.52864127 -32.12325026 52.53282346 -34.4375 54.5625 C-35.26378906 55.23925781 -36.09007812 55.91601562 -36.94140625 56.61328125 C-41.74278523 60.59680317 -41.74278523 60.59680317 -43.71484375 66.22265625 C-43.42869602 68.85527944 -43.42869602 68.85527944 -42.77734375 71.30078125 C-42.35148879 74.13491945 -42.86246092 75.20239471 -44.4375 77.5625 C-46.31965868 79.41540233 -48.35108806 80.92965588 -50.4375 82.5625 C-53.59436625 80.00143668 -54.21511369 77.41851473 -55.25 73.5625 C-56.67183202 68.84648577 -56.67183202 68.84648577 -60.125 65.5 C-61.7646875 65.0359375 -61.7646875 65.0359375 -63.4375 64.5625 C-65.04435327 64.05001524 -66.64843241 63.52877152 -68.25 63 C-69.01957031 62.77183594 -69.78914063 62.54367187 -70.58203125 62.30859375 C-72.4375 61.5625 -72.4375 61.5625 -73.4375 59.5625 C-68.8125 53.8125 -68.8125 53.8125 -65.4375 51.5625 C-63.84523694 51.96629333 -62.26284552 52.409557 -60.6875 52.875 C-57.28183057 53.33213684 -55.28396072 53.16786032 -52.45751953 51.14648438 C-47.76066642 46.96709053 -43.54240289 42.31751949 -39.4375 37.5625 C-42.98714219 34.60828694 -46.62402554 32.12441485 -50.578125 29.7421875 C-51.74223079 29.03522753 -52.90629203 28.32819419 -54.0703125 27.62109375 C-55.88866351 26.52228033 -57.70801065 25.42515552 -59.52832031 24.32958984 C-61.29753533 23.26303843 -63.06297393 22.19044702 -64.828125 21.1171875 C-65.88032227 20.48280762 -66.93251953 19.84842773 -68.01660156 19.19482422 C-70.4375 17.5625 -70.4375 17.5625 -71.4375 15.5625 C-70.44353634 14.20901756 -69.41590812 12.88022105 -68.375 11.5625 C-67.52228516 10.44875 -67.52228516 10.44875 -66.65234375 9.3125 C-63.48411969 6.80921186 -61.42608162 7.29087344 -57.4375 7.5625 C-54.7695508 8.290154 -52.26411165 9.06667837 -49.67578125 10.00390625 C-48.96270309 10.25043442 -48.24962494 10.49696259 -47.51493835 10.7509613 C-45.25626108 11.53215365 -43.00272339 12.32681372 -40.75 13.125 C-37.77098397 14.18008797 -34.7875993 15.22114228 -31.80078125 16.25390625 C-31.12155106 16.49967911 -30.44232086 16.74545197 -29.74250793 16.99867249 C-25.06972907 18.66464892 -25.06972907 18.66464892 -20.4375 17.5625 C-18.80276137 16.33684517 -18.80276137 16.33684517 -17.34375 14.76171875 C-16.78816406 14.19646484 -16.23257813 13.63121094 -15.66015625 13.04882812 C-15.09167969 12.45521484 -14.52320313 11.86160156 -13.9375 11.25 C-13.36902344 10.66798828 -12.80054688 10.08597656 -12.21484375 9.48632812 C-9.86169066 7.07584763 -7.52660011 4.65938247 -5.24609375 2.1796875 C-3.4375 0.5625 -3.4375 0.5625 0 0 Z " fill="#FEFEFE" transform="translate(146.4375,240.4375)"/>
<path d="M0 0 C7.45642458 5.32601756 9.30226278 15.21040501 10.82519531 23.75634766 C11.00663086 24.84737793 11.18806641 25.9384082 11.375 27.0625 C11.57706055 28.2282959 11.77912109 29.3940918 11.98730469 30.59521484 C14.24536146 43.91296721 16.14673495 57.28957331 18.03271484 70.66430664 C18.2182341 71.96844765 18.2182341 71.96844765 18.40750122 73.29893494 C18.64125914 74.94471218 18.87208629 76.59090911 19.09957886 78.23756409 C19.61715638 82.24204985 19.61715638 82.24204985 21 86 C21.1952124 85.23260498 21.3904248 84.46520996 21.59155273 83.67456055 C27.63268139 60.08630898 34.45167916 37.00093329 43.875 14.5 C44.33946533 13.38915039 44.80393066 12.27830078 45.2824707 11.13378906 C45.72292725 10.10995117 46.16338379 9.08611328 46.6171875 8.03125 C47.00503418 7.12955078 47.39288086 6.22785156 47.79248047 5.29882812 C48.96403896 3.06846121 50.11829146 1.65117034 52 0 C52.99 0.33 53.98 0.66 55 1 C54.43701379 5.0175576 53.56654052 8.47436927 51.99609375 12.2109375 C51.58915283 13.19570068 51.18221191 14.18046387 50.76293945 15.19506836 C50.10684692 16.76913452 50.10684692 16.76913452 49.4375 18.375 C40.3352975 40.72685186 33.34075001 63.60752995 27.78125 87.08984375 C27.60303711 87.83621094 27.42482422 88.58257812 27.24121094 89.3515625 C26.789007 91.27185595 26.35459287 93.19631569 25.921875 95.12109375 C25.01122834 97.96493524 24.44810908 99.31884239 22 101 C19.3125 100.6875 19.3125 100.6875 17 100 C13.87198662 92.02264044 12.71871714 83.85035378 11.49530029 75.42230225 C11.11901358 72.83381932 10.73216065 70.24711356 10.34228516 67.66064453 C9.81182428 64.13878021 9.28420323 60.61651637 8.75976562 57.09375 C7.65552019 49.68362673 6.53077395 42.27726084 5.375 34.875 C5.19340332 33.65796387 5.01180664 32.44092773 4.82470703 31.18701172 C3.19671157 17.58356203 3.19671157 17.58356203 -3 6 C-5.58354218 5.83312552 -5.58354218 5.83312552 -8 6 C-8.433125 7.3303125 -8.433125 7.3303125 -8.875 8.6875 C-9.54072924 10.64770276 -10.25277366 12.59476155 -11.0625 14.5 C-14.66092936 24.09581162 -13.56171925 34.57628448 -10 44 C-8.92644858 45.86463082 -8.92644858 45.86463082 -7.75 47.4375 C-6 50 -6 50 -6.25 52.375 C-6.4975 52.91125 -6.745 53.4475 -7 54 C-9.1875 54 -9.1875 54 -12 53 C-17.92246971 46.1016688 -19.37799766 38.01845601 -19.3125 29.1875 C-19.30686035 28.39359863 -19.3012207 27.59969727 -19.29541016 26.78173828 C-19.09543212 17.10161347 -17.05203093 9.0347888 -10 2 C-6.5320769 -0.05781429 -4.04601863 -0.57800266 0 0 Z " fill="#FDFDFD" transform="translate(196,238)"/>
<path d="M0 0 C5.16645552 2.67707351 7.50251349 6.28078191 9.41992188 11.75244141 C10.42476822 15.64579808 10.39318235 19.43888249 10.3125 23.4375 C10.31572266 24.23220703 10.31894531 25.02691406 10.32226562 25.84570312 C10.27213922 31.44618971 9.41414448 36.58707263 8 42 C8.66 42 9.32 42 10 42 C9.67 43.32 9.34 44.64 9 46 C8.40445313 46.07605469 7.80890625 46.15210938 7.1953125 46.23046875 C4.24414943 47.26495118 3.51610241 48.68759536 1.875 51.3125 C1.37742187 52.09238281 0.87984375 52.87226563 0.3671875 53.67578125 C-0.85222955 55.74879023 -1.95870445 57.83311354 -3 60 C-1.35 61.32 0.3 62.64 2 64 C1.505 65.98 1.505 65.98 1 68 C-2.03224008 67.56682285 -3.82617385 67.12565396 -6.33984375 65.30859375 C-8.94415216 63.64696285 -8.94415216 63.64696285 -11.6484375 64.8359375 C-12.54820312 65.34382813 -13.44796875 65.85171875 -14.375 66.375 C-19.25628835 68.86518363 -21.75651058 69.51478583 -27 68 C-27.66 66.35 -28.32 64.7 -29 63 C-29.96099609 63.433125 -29.96099609 63.433125 -30.94140625 63.875 C-36.06890504 66.07577444 -40.32506889 67.89018527 -46 67 C-50.81284225 64.26543054 -52.17560945 60.99306887 -54 56 C-57.3330927 57.66654635 -57.65698342 61.35511063 -58.8046875 64.75 C-60 67 -60 67 -62.0703125 67.875 C-62.70710938 67.91625 -63.34390625 67.9575 -64 68 C-65.70992874 66.29007126 -65.44920093 64.0240688 -65.6875 61.6875 C-65.79449219 60.72199219 -65.90148437 59.75648438 -66.01171875 58.76171875 C-65.9994412 55.86831028 -65.50597449 54.42917724 -64 52 C-63.319375 52.0825 -62.63875 52.165 -61.9375 52.25 C-58.92511171 51.99362653 -57.91837198 51.49339169 -55.4375 49.9375 C-52 48 -52 48 -49.921875 48.03515625 C-48 49 -48 49 -46.76953125 51.46875 C-46.45371094 52.4690625 -46.13789063 53.469375 -45.8125 54.5 C-44.89873013 58.03092035 -44.89873013 58.03092035 -43 61 C-37.07322667 61.86733268 -33.5749524 59.38987437 -29 56 C-27.94985599 55.09305745 -26.90744621 54.1770394 -25.875 53.25 C-22.7709457 50.82074012 -20.88077931 50.27719852 -17 50 C-17.27714844 49.26394531 -17.55429687 48.52789062 -17.83984375 47.76953125 C-18.38318359 46.30580078 -18.38318359 46.30580078 -18.9375 44.8125 C-19.47697266 43.36810547 -19.47697266 43.36810547 -20.02734375 41.89453125 C-23.36875697 31.95080757 -23.93523267 18.65899227 -19.34765625 9.0234375 C-14.61642849 1.91973901 -8.47206858 -1.42818832 0 0 Z M-13 8 C-18.17265084 16.95916648 -18.03008387 26.11500453 -15.875 36 C-14.11546735 42.42611923 -11.19066828 48.17625595 -8 54 C0.08709025 47.34004332 3.63766571 37.33091715 4.81640625 27.171875 C5.30837022 18.67241241 4.35940439 12.3564949 0 5 C-1.15016254 3.63777693 -1.15016254 3.63777693 -4.25 3.6875 C-8.77457731 4.06454811 -10.01036966 4.60636556 -13 8 Z M-22.75 56.6875 C-24.18991433 59.35134151 -24.24862931 61.01644824 -24 64 C-21.17133075 65.31112074 -21.17133075 65.31112074 -19.17578125 64.22265625 C-18.56089844 63.83980469 -17.94601562 63.45695312 -17.3125 63.0625 C-15.6728125 62.0415625 -15.6728125 62.0415625 -14 61 C-14.57344937 58.13275314 -14.8614515 57.1385485 -17 55 C-20.92528402 54.53724295 -20.92528402 54.53724295 -22.75 56.6875 Z " fill="#FDFDFD" transform="translate(369,240)"/>
<path d="M0 0 C0 0.99 0 1.98 0 3 C-4.12160101 4.34400033 -7.93369852 5.17103833 -12.2578125 5.56640625 C-13.59416748 5.6912439 -13.59416748 5.6912439 -14.95751953 5.81860352 C-15.63153809 5.87846436 -16.30555664 5.9383252 -17 6 C-17.02505615 6.96897217 -17.0501123 7.93794434 -17.07592773 8.9362793 C-17.50878018 25.60452957 -17.94781641 42.27271085 -18.5 58.9375 C-18.53536865 60.05793701 -18.5707373 61.17837402 -18.60717773 62.33276367 C-18.80125628 67.99841324 -19.10217831 73.63966182 -19.52734375 79.29296875 C-19.9050488 84.34293427 -20.11026129 89.31230352 -20.0625 94.375 C-20.041875 96.56125 -20.02125 98.7475 -20 101 C-15.71 102.98 -11.42 104.96 -7 107 C-7 108.32 -7 109.64 -7 111 C-12.99027695 110.3136141 -18.33928763 108.72725031 -24.0390625 106.81640625 C-28.36946531 105.40359143 -32.4714291 104.51889875 -37 104 C-37.33 102.68 -37.66 101.36 -38 100 C-34.78548731 98.39274365 -31.56387464 98.94251815 -28 99 C-26.92252383 94.53529128 -26.75322563 90.10709435 -26.61108398 85.5378418 C-26.58167725 84.6983046 -26.55227051 83.8587674 -26.52197266 82.99378967 C-26.42610174 80.22905102 -26.33606766 77.46415507 -26.24609375 74.69921875 C-26.18062222 72.77821137 -26.11478569 70.8572164 -26.04859924 68.93623352 C-25.87563592 63.88772182 -25.7076265 58.839057 -25.54064941 53.79034424 C-25.36928494 48.63551843 -25.19323416 43.48085291 -25.01757812 38.32617188 C-24.67379957 28.21759786 -24.33568783 18.10884593 -24 8 C-31.92 8.495 -31.92 8.495 -40 9 C-39.67 7.68 -39.34 6.36 -39 5 C-36.64631607 4.51835812 -34.29209845 4.03963352 -31.9375 3.5625 C-31.28072266 3.42779297 -30.62394531 3.29308594 -29.94726562 3.15429688 C-20.07879481 1.16115745 -10.08096052 -0.21915132 0 0 Z " fill="#FEFEFE" transform="translate(315,223)"/>
<path d="M0 0 C0.66 0 1.32 0 2 0 C3.28446919 2.56893838 3.32977144 4.76576337 3.5625 7.625 C3.64628906 8.62789063 3.73007812 9.63078125 3.81640625 10.6640625 C3.87699219 11.43492187 3.93757813 12.20578125 4 13 C6.31 13.33 8.62 13.66 11 14 C11 14.99 11 15.98 11 17 C8.36 17 5.72 17 3 17 C2.97054969 20.31248078 2.95305199 23.62492711 2.9375 26.9375 C2.92493164 28.32678711 2.92493164 28.32678711 2.91210938 29.74414062 C2.89162214 35.58300303 3.24570213 41.20913053 4 47 C2.10546875 46.66796875 2.10546875 46.66796875 0 46 C-2.44784436 42.10158121 -3.4587 38.54692 -4 34 C-3.95875 34.928125 -3.9175 35.85625 -3.875 36.8125 C-4 40 -4 40 -6 43 C-7.1446875 42.6596875 -7.1446875 42.6596875 -8.3125 42.3125 C-9.199375 42.209375 -10.08625 42.10625 -11 42 C-11.474375 42.474375 -11.94875 42.94875 -12.4375 43.4375 C-14 45 -14 45 -16.9375 45.3125 C-19.91600792 45.00857062 -21.44513655 44.44775595 -24 43 C-24.70125 42.896875 -25.4025 42.79375 -26.125 42.6875 C-28 42 -28 42 -29.1328125 39.8125 C-30.09346072 36.69688414 -30.08482006 34.54175136 -29.75 31.3125 C-29.66234375 30.35988281 -29.5746875 29.40726562 -29.484375 28.42578125 C-29 26 -29 26 -27 24 C-25.00049364 23.95556653 -22.99961564 23.96079185 -21 24 C-20.113125 23.79375 -19.22625 23.5875 -18.3125 23.375 C-16 23 -16 23 -13 25 C-13.33 25.99 -13.66 26.98 -14 28 C-14.99 28 -15.98 28 -17 28 C-15.35 30.31 -13.7 32.62 -12 35 C-11.87882812 34.37351562 -11.75765625 33.74703125 -11.6328125 33.1015625 C-11.46523438 32.28429687 -11.29765625 31.46703125 -11.125 30.625 C-10.88136719 29.40683594 -10.88136719 29.40683594 -10.6328125 28.1640625 C-10 26 -10 26 -8 24 C-6.68 24 -5.36 24 -4 24 C-4 22.68 -4 21.36 -4 20 C-4.99 20.33 -5.98 20.66 -7 21 C-7.99 19.02 -8.98 17.04 -10 15 C-9 14 -9 14 -5.9375 13.9375 C-4.4834375 13.9684375 -4.4834375 13.9684375 -3 14 C-2.95101563 13.15695312 -2.90203125 12.31390625 -2.8515625 11.4453125 C-2.77679688 10.34960938 -2.70203125 9.25390625 -2.625 8.125 C-2.55539062 7.03445313 -2.48578125 5.94390625 -2.4140625 4.8203125 C-2 2 -2 2 0 0 Z M-23 30 C-23 32.97 -23 35.94 -23 39 C-22.01 38.34 -21.02 37.68 -20 37 C-20.57452746 33.06924356 -20.57452746 33.06924356 -23 30 Z " fill="#FDFDFD" transform="translate(268,266)"/>
<path d="M0 0 C1.875 0.1875 1.875 0.1875 4 1 C5.25 3.5625 5.25 3.5625 6 6 C6.433125 5.525625 6.86625 5.05125 7.3125 4.5625 C10.4275635 1.67818195 13.58423753 1.86433836 17.625 1.875 C18.60726563 1.87242187 19.58953125 1.86984375 20.6015625 1.8671875 C23 2 23 2 24 3 C24.45459858 5.65463121 24.70243238 8.32189138 25 11 C33.64180528 11.62849493 39.80345406 8.64293287 47 4 C46.75311061 7.33300679 45.79384198 8.19656928 43.3125 10.5625 C36.89707834 15.47998122 31.03235734 16.95323227 23 17 C22.12730469 16.79890625 21.25460937 16.5978125 20.35546875 16.390625 C17.08883435 15.84889459 15.7704671 17.42674291 13.10546875 19.1328125 C8.94644951 20.84580373 4.28860667 20.00992064 0 19 C-2 17 -2 17 -2.265625 14.1015625 C-2.26046875 12.95429688 -2.2553125 11.80703125 -2.25 10.625 C-2.25515625 9.48289062 -2.2603125 8.34078125 -2.265625 7.1640625 C-2.01510533 4.17993117 -1.55829924 2.51059322 0 0 Z M12.3125 7.1875 C10.59635305 9.55741722 10.76812892 11.14025666 11 14 C14.16115776 12.63016497 14.9927092 12.0109362 17 9 C17 8.01 17 7.02 17 6 C14.06499542 5.7122533 14.06499542 5.7122533 12.3125 7.1875 Z " fill="#FDFDFD" transform="translate(374,290)"/>
<path d="M0 0 C1.32 0 2.64 0 4 0 C3.67 1.65 3.34 3.3 3 5 C2.01 4.67 1.02 4.34 0 4 C0 2.68 0 1.36 0 0 Z " fill="#FDFDFD" transform="translate(241,282)"/>
</svg>
